<?xml version="1.0" encoding="UTF-8"?>
<svg xmlns="http://www.w3.org/2000/svg" xmlns:xlink="http://www.w3.org/1999/xlink" width="48px" height="48px" viewBox="0 0 48 48" version="1.1">
<g id="surface321683">
<path style=" stroke:none;fill-rule:nonzero;fill:rgb(100%,43.137255%,15.686275%);fill-opacity:1;" d="M 25 25 L 13 25 L 13 21 L 25 21 C 27.800781 21 30 18.800781 30 16 L 30 15 C 30 12.199219 27.800781 10 25 10 L 11 10 L 11 6 L 25 6 C 30 6 34 10 34 15 L 34 16 C 34 21 30 25 25 25 Z M 25 25 "/>
<path style=" stroke:none;fill-rule:nonzero;fill:rgb(100%,43.137255%,15.686275%);fill-opacity:1;" d="M 11 8 L 15 8 L 15 40 L 11 40 Z M 11 8 "/>
<path style=" stroke:none;fill-rule:nonzero;fill:rgb(100%,43.137255%,15.686275%);fill-opacity:1;" d="M 27 42 L 11 42 L 11 38 L 27 38 C 30.300781 38 33 35.300781 33 32 L 33 31 C 33 27.699219 30.300781 25 27 25 L 13 25 L 13 21 L 27 21 C 32.5 21 37 25.5 37 31 L 37 32 C 37 37.5 32.5 42 27 42 Z M 27 42 "/>
</g>
</svg>
