<?xml version="1.0" encoding="UTF-8"?>
<svg xmlns="http://www.w3.org/2000/svg" xmlns:xlink="http://www.w3.org/1999/xlink" width="48px" height="48px" viewBox="0 0 48 48" version="1.1">
<g id="surface324572">
<path style=" stroke:none;fill-rule:nonzero;fill:rgb(100%,43.137255%,15.686275%);fill-opacity:1;" d="M 37 41 L 33 41 L 33 32 C 33 28.699219 30.300781 26 27 26 L 21 26 C 17.699219 26 15 28.699219 15 32 L 15 41 L 11 41 L 11 32 C 11 26.5 15.5 22 21 22 L 27 22 C 32.5 22 37 26.5 37 32 Z M 37 41 "/>
<path style=" stroke:none;fill-rule:nonzero;fill:rgb(100%,43.137255%,15.686275%);fill-opacity:1;" d="M 27 26 L 21 26 C 15.5 26 11 21.5 11 16 L 11 7 L 15 7 L 15 16 C 15 19.300781 17.699219 22 21 22 L 27 22 C 30.300781 22 33 19.300781 33 16 L 33 7 L 37 7 L 37 16 C 37 21.5 32.5 26 27 26 Z M 27 26 "/>
</g>
</svg>
