<?xml version="1.0" encoding="UTF-8"?>
<svg xmlns="http://www.w3.org/2000/svg" xmlns:xlink="http://www.w3.org/1999/xlink" width="48px" height="48px" viewBox="0 0 48 48" version="1.1">
<g id="surface324003">
<path style=" stroke:none;fill-rule:nonzero;fill:rgb(100%,43.137255%,15.686275%);fill-opacity:1;" d="M 27 42 L 21 42 C 15.5 42 11 37.5 11 32 L 15 32 C 15 35.300781 17.699219 38 21 38 L 27 38 C 30.300781 38 33 35.300781 33 32 L 33 31 C 33 27.699219 30.300781 25 27 25 L 20 25 C 15 25 11 21 11 16 L 11 15 C 11 10 15 6 20 6 L 26 6 C 31.5 6 36 10.5 36 16 L 32 16 C 32 12.699219 29.300781 10 26 10 L 20 10 C 17.199219 10 15 12.199219 15 15 L 15 16 C 15 18.800781 17.199219 21 20 21 L 27 21 C 32.5 21 37 25.5 37 31 L 37 32 C 37 37.5 32.5 42 27 42 Z M 27 42 "/>
</g>
</svg>
