<?xml version="1.0" encoding="UTF-8"?>
<svg xmlns="http://www.w3.org/2000/svg" xmlns:xlink="http://www.w3.org/1999/xlink" width="48px" height="48px" viewBox="0 0 48 48" version="1.1">
<g id="surface32012">
<path style=" stroke:none;fill-rule:nonzero;fill:rgb(100%,43.137255%,15.686275%);fill-opacity:1;" d="M 26.558594 34.390625 L 29.386719 31.558594 L 38.367188 40.539062 L 35.539062 43.367188 Z M 26.558594 34.390625 "/>
<path style=" stroke:none;fill-rule:nonzero;fill:rgb(100%,43.137255%,15.686275%);fill-opacity:1;" d="M 27 42 L 21 42 C 15.5 42 11 37.5 11 32 L 11 16 C 11 10.5 15.5 6 21 6 L 27 6 C 32.5 6 37 10.5 37 16 L 37 32 C 37 37.5 32.5 42 27 42 Z M 21 10 C 17.699219 10 15 12.699219 15 16 L 15 32 C 15 35.300781 17.699219 38 21 38 L 27 38 C 30.300781 38 33 35.300781 33 32 L 33 16 C 33 12.699219 30.300781 10 27 10 Z M 21 10 "/>
</g>
</svg>
