<?xml version="1.0" encoding="UTF-8"?>
<svg xmlns="http://www.w3.org/2000/svg" xmlns:xlink="http://www.w3.org/1999/xlink" width="48px" height="48px" viewBox="0 0 48 48" version="1.1">
<g id="surface250339">
<path style=" stroke:none;fill-rule:nonzero;fill:rgb(100%,43.137255%,15.686275%);fill-opacity:1;" d="M 26 25 L 26 21 C 28.800781 21 31 18.800781 31 16 L 31 7 L 35 7 L 35 16 C 35 21 31 25 26 25 Z M 26 25 "/>
<path style=" stroke:none;fill-rule:nonzero;fill:rgb(100%,43.137255%,15.686275%);fill-opacity:1;" d="M 37 41 L 33 41 L 33 31 C 33 27.699219 30.300781 25 27 25 L 15 25 L 15 21 L 27 21 C 32.5 21 37 25.5 37 31 Z M 11 7 L 15 7 L 15 41 L 11 41 Z M 11 7 "/>
</g>
</svg>
