<?xml version="1.0" encoding="UTF-8"?>
<svg xmlns="http://www.w3.org/2000/svg" xmlns:xlink="http://www.w3.org/1999/xlink" width="48px" height="48px" viewBox="0 0 48 48" version="1.1">
<g id="surface32879">
<path style=" stroke:none;fill-rule:nonzero;fill:rgb(100%,43.137255%,15.686275%);fill-opacity:1;" d="M 27 42 L 20 42 C 15.601562 42 12 38.398438 12 34 L 16 34 C 16 36.199219 17.800781 38 20 38 L 27 38 C 30.300781 38 33 35.300781 33 32 L 33 18 L 37 18 L 37 32 C 37 37.5 32.5 42 27 42 Z M 27 42 "/>
<path style=" stroke:none;fill-rule:nonzero;fill:rgb(100%,43.137255%,15.686275%);fill-opacity:1;" d="M 27 28 L 21 28 C 15.5 28 11 23.5 11 18 L 11 7 L 15 7 L 15 18 C 15 21.300781 17.699219 24 21 24 L 27 24 C 30.300781 24 33 21.300781 33 18 L 33 7 L 37 7 L 37 18 C 37 23.5 32.5 28 27 28 Z M 27 28 "/>
</g>
</svg>
