<?xml version="1.0" encoding="UTF-8"?>
<svg xmlns="http://www.w3.org/2000/svg" xmlns:xlink="http://www.w3.org/1999/xlink" width="24pt" height="24pt" viewBox="0 0 24 24" version="1.1">
<g id="surface5350">
<path style=" stroke:none;fill-rule:nonzero;fill:rgb(100%,43.137255%,15.686275%);fill-opacity:1;" d="M 6 2 L 6 14 L 8 14 L 8 4 L 18 4 L 18 18.5 C 18 19.375 17.375 20 16.5 20 C 15.625 20 15 19.375 15 18.5 C 15 17.625 15.625 17 16.5 17 L 16.5 15 L 6.5 15 C 4.578125 15 3 16.578125 3 18.5 C 3 20.421875 4.578125 22 6.5 22 L 16.5 22 C 18.421875 22 20 20.421875 20 18.5 L 20 2 Z M 6.5 17 L 13.375 17 C 13.148438 17.460938 13 17.953125 13 18.5 C 13 19.046875 13.148438 19.539062 13.375 20 L 6.5 20 C 5.625 20 5 19.375 5 18.5 C 5 17.625 5.625 17 6.5 17 Z M 6.5 17 "/>
</g>
</svg>
